<?xml version="1.0" encoding="UTF-8"?>
<svg xmlns="http://www.w3.org/2000/svg" width="1024" height="1024" viewBox="0 0 1024 1024">
  <g>
    <path d="M 771.8 362.0 A 300 300 0 0 1 362.0 771.8" fill="none" stroke="#00D9F5" stroke-width="44" stroke-linecap="round" />
    <path d="M 252.2 662.0 A 300 300 0 0 1 662.0 252.2" fill="none" stroke="#00D9F5" stroke-width="44" stroke-linecap="round" />
    <path d="M 414.5 343.1 A 195 195 0 0 1 680.9 609.5" fill="none" stroke="#FFFFFF" stroke-width="22" stroke-linecap="round" />
    <path d="M 609.5 680.9 A 195 195 0 0 1 343.1 414.5" fill="none" stroke="#FFFFFF" stroke-width="22" stroke-linecap="round" />
    <circle cx="771.8" cy="362.0" r="20" fill="#00D9F5" />
    <circle cx="362.0" cy="771.8" r="20" fill="#00D9F5" />
    <circle cx="252.2" cy="662.0" r="20" fill="#00D9F5" />
    <circle cx="662.0" cy="252.2" r="20" fill="#00D9F5" />
    <circle cx="414.5" cy="343.1" r="14" fill="#FFFFFF" />
    <circle cx="680.9" cy="609.5" r="14" fill="#FFFFFF" />
    <circle cx="609.5" cy="680.9" r="14" fill="#FFFFFF" />
    <circle cx="343.1" cy="414.5" r="14" fill="#FFFFFF" />
    <circle cx="797.3" cy="419.3" r="12" fill="#00D9F5" />
    <circle cx="811.6" cy="496.3" r="12" fill="#00D9F5" />
    <circle cx="805.4" cy="574.4" r="12" fill="#00D9F5" />
    <circle cx="779.3" cy="648.2" r="12" fill="#00D9F5" />
    <circle cx="734.9" cy="712.7" r="12" fill="#00D9F5" />
    <circle cx="512" cy="512" r="34" fill="#00D9F5" />
  </g>
</svg>